<svg width="32" height="32" viewBox="0 0 32 32" fill="none" xmlns="http://www.w3.org/2000/svg">
<g clip-path="url(#clip0_1_4)">
<path d="M16.64 28.5C22.48 28.5 27.94 26.9 27.94 22.26C27.94 19.86 26.98 18.26 23.78 18.26C21.92 18.26 20.42 19.08 19.44 19.08C17.22 19.08 16.84 17.5 16.84 15.44C16.84 12.96 17.6 11.32 19.04 11.32C20.16 11.32 21.04 11.58 23 11.58C24.96 11.58 26.14 10.28 26.14 7.92C26.14 4.78 22.48 3.3 18.74 3.3C9.8 3.3 4 8.94 4 17.7C4 24.8 9.34 28.5 16.64 28.5Z" fill="#F79DF9"/>
</g>
<defs>
<clipPath id="clip0_1_4">
<rect width="32" height="32" fill="white"/>
</clipPath>
</defs>
</svg>
