<?xml version="1.0" encoding="UTF-8"?>
<svg width="666px" height="143px" viewBox="0 0 666 143" version="1.1" xmlns="http://www.w3.org/2000/svg" xmlns:xlink="http://www.w3.org/1999/xlink">
    <!-- Generator: Sketch 59.1 (86144) - https://sketch.com -->
    <title>Ricardo_Logo_RGB</title>
    <desc>Created with Sketch.</desc>
    <g id="Page-1" stroke="none" stroke-width="1" fill="none" fill-rule="evenodd">
        <g id="Ricardo_Logo_RGB" fill="#EF7310" fill-rule="nonzero">
            <path d="M124.31,140.8 L124.31,56.2 C124.31,51.7 125.71,48.5 128.41,46.7 C131.520018,44.8563826 135.097574,43.9533101 138.71,44.1 C143.424086,44.095664 148.027932,45.5256465 151.91,48.2 L151.91,140.8 L124.31,140.8 Z" id="Path"></path>
            <path d="M297.94,97.06 L297.8,97.14 C293.003708,99.4501627 289.967145,104.316449 289.999736,109.64 C289.999736,117.74 296.4,124.24 311,124.64 L312,124.64 C318.243871,124.798943 324.489909,124.424248 330.67,123.52 L330.57,107.25 L330.57,106.42 C330.57,105.42 328.07,100.92 322.47,98.02 C313.46,93.48 302.72,94.61 297.94,97.06 Z M327.79,42.7 C344.99,47.6 357.9,58.87 357.9,83.37 L357.9,141.27 C357.9,141.17 339.18,142.54 320.56,142.76 L318.88,142.76 C300.68,142.89 285.49,141.48 275.2,133.25 C268.081815,127.692709 263.914797,119.170605 263.9,110.14 L263.9,109.85 C263.8,98.65 268.5,90.45 278.1,84.45 C295,73.95 321.7,76.65 330.7,84.45 L330.7,78.7 C330.7,72.3 326.2,60.9 304.9,60.9 C301.721007,60.908626 298.554711,61.3014751 295.47,62.07 C289.474027,63.3032877 283.676304,65.3558769 278.24,68.17 L278.01,67.94 C275.220801,65.0555824 273.642649,61.2121908 273.6,57.2 C273.637561,54.3136745 274.733579,51.5416027 276.68,49.41 C285.56,41.11 306.4,36.61 327.79,42.7 Z" id="Shape"></path>
            <path d="M497.76,63.6 C491.26,63.6 485.64,65.73 481.46,70.47 L481.26,70.7 C476.76,75.8 474.76,81.2 474.76,91.4 C474.76,102.7 480.26,110.5 482.66,113 C490.06,120.6 499.06,120.8 504.06,120.8 L504.85,120.8 C509.203768,120.833514 513.552579,120.498991 517.85,119.8 L517.92,119.8 L517.92,77.1 L517.86,76.91 C517.34,75.28 512.82,63.6 497.76,63.6 Z M532.26,7.5 C536.900809,7.49806939 541.441965,8.84617087 545.33,11.38 L545.33,11.38 L545.23,141.18 L541.72,141.43 C535.1,141.88 520.38,142.78 508.53,142.78 C488.23,142.78 472.83,138.88 462.63,129.08 C451.87,118.7 447.35,106.84 447.26,89.7 L447.26,89.18 C447.26,80.67 449.9,65.88 461.21,54.23 L461.56,53.88 C469.686306,45.5582491 480.828651,40.8705312 492.46,40.88 C508.12,40.88 516,48.98 517.64,50.82 L517.96,51.18 L517.96,19.6 C517.96,15.1 519.36,11.9 522.06,10.1 C525.133135,8.25582957 528.679049,7.35196908 532.26,7.5 L532.26,7.5 Z" id="Shape"></path>
            <path d="M419.56,41 C424.814796,40.8392316 430.049248,41.7229703 434.96,43.6 L435.26,43.74 C437.86,44.92 443.13,47.87 443.73,54.05 L443.73,54.3 C444.317522,59.0038648 442.587924,63.7006168 439.09,66.9 C432.343333,63.7533333 424.096667,62.93 414.35,64.43 L413.87,64.5 L413.87,64.5 C410.638916,64.9007061 407.531909,65.9920808 404.76,67.7 L404.76,141.3 L377.06,141.3 L377.06,51 L377.28,50.86 C379.22,49.7 393.98,41 419.56,41 Z" id="Path"></path>
            <path d="M613.16,62.4 C609.495076,62.3236249 605.863692,63.1115669 602.56,64.7 C599.568885,66.1764291 596.913769,68.2528659 594.76,70.8 C592.558066,73.5129798 590.925558,76.6419546 589.96,80 C588.89749,83.775051 588.359115,87.6782739 588.36,91.6 C588.309542,95.5249659 588.848892,99.43525 589.96,103.2 C590.925558,106.558045 592.558066,109.68702 594.76,112.4 C596.768701,114.934724 599.321676,116.985307 602.23,118.4 L602.56,118.55 C605.871522,120.115517 609.497447,120.902275 613.16,120.85 C616.715993,120.898806 620.237036,120.14332 623.46,118.64 L623.73,118.5 C626.721115,117.023571 629.376231,114.947134 631.53,112.4 C633.731934,109.68702 635.364442,106.558045 636.33,103.2 C637.441108,99.43525 637.980458,95.5249659 637.93,91.6 C637.973428,87.6754744 637.434222,83.766229 636.33,80 C635.364442,76.6419546 633.731934,73.5129798 631.53,70.8 C629.441334,68.1861593 626.770166,66.0971691 623.73,64.7 C620.444141,63.0908883 616.817383,62.3017168 613.16,62.4 Z M613.26,40.4 C620.715442,40.3288055 628.11549,41.6866125 635.06,44.4 C641.228543,46.9590072 646.860008,50.6567763 651.66,55.3 C656.377333,59.8841708 660.030078,65.4486329 662.36,71.6 C664.781726,78.0227439 666.002009,84.83599 665.961049,91.7 C665.97119,98.561332 664.751893,105.369071 662.36,111.8 C657.411382,124.250749 647.528825,134.097106 635.06,139 C621.015878,144.332869 605.504122,144.332869 591.46,139 C585.450619,136.503738 579.947157,132.931909 575.22,128.46 L574.86,128.1 C570.121303,123.533511 566.465202,117.963937 564.16,111.8 C561.68161,105.393001 560.459385,98.5689103 560.56,91.7 C560.54881,84.838668 561.768107,78.030929 564.16,71.6 C566.589181,65.4997671 570.229059,59.9549059 574.86,55.3 C579.478494,50.6974017 584.964451,47.057092 591,44.59 L591.46,44.4 C598.390872,41.6389414 605.800383,40.2793982 613.26,40.4 L613.26,40.4 Z" id="Shape"></path>
            <path d="M198.65,44.4 C215.28,38.56 232.11,41.34 238.08,43.34 L238.25,43.4 C246.15,46.1 250.95,49.4 253.45,53.4 C257.05,59.3 255.05,66.6 251.35,70.7 C250.610531,71.4673778 249.818623,72.182434 248.98,72.84 L248.9,72.78 C242.593333,68.3 236.383333,65.5 230.27,64.38 C227.400283,63.8041109 224.476367,63.542568 221.55,63.6 C212.45,63.7 206.55,66.8 202.35,70.9 C197.45,75.7 194.95,82.8 194.95,91.8 C194.95,102.7 198.95,108.8 202.25,112.7 L202.48,112.97 C204.86,115.62 210.79,120.2 220.55,120.2 L221.1,120.2 C226.554319,120.203211 231.9387,118.972495 236.85,116.6 C239.480924,115.390047 241.917517,113.795984 244.08,111.87 L244.15,111.8 L256.75,130.2 L256.58,130.36 C252.595059,133.714276 248.052993,136.344071 243.16,138.13 L240.6,139.02 C233.523808,141.467332 226.087443,142.711234 218.6,142.700075 L218.19,142.700075 C211.29,142.700075 193.89,141.1 182.39,129.6 C177.747983,125.007373 174.015815,119.578765 171.39,113.6 C168.592494,106.679669 167.231583,99.2627019 167.39,91.8 C167.297441,84.5049765 168.657168,77.2644336 171.39,70.5 C173.954598,64.4873619 177.694435,59.0475984 182.39,54.5 C187.036072,50.0230262 192.577665,46.5808313 198.65,44.4 Z" id="Path"></path>
            <circle id="Oval" cx="138.1" cy="17.3" r="17.3"></circle>
            <path d="M107.9,139.76 C107.84,128.07 106.45,101.93 85.21,86.7 C89.41,83.7 104.91,75.55 104.01,51.95 C102.51,21.75 76.71,8.8 43.4,10.4 C14.1,11.8 1.42108547e-14,20.6 1.42108547e-14,21.5 L1.42108547e-14,140.7 L27.7,140.7 L27.9,92.1 L28.62,92.1 C35.4394788,91.8909357 42.2634083,92.329569 49,93.41 C54.1,94.31 59.2,95.51 64.1,99.01 C79.2,109.79 80.27,128.74 80.3,140.13 L80.3,140.81 L107.9,140.81 L107.9,139.76 Z M64.3,70.5 C55.09,74.25 35.46,72.37 28.59,71.5 L27.8,71.4 L27.7,36.5 L27.93,36.37 C32.78,33.66 41.44,32.37 50.3,32.37 C75.11,32.37 76.71,48.87 76.71,52.37 C76.81,58.9 74.46,66.4 64.3,70.5 Z" id="Shape"></path>
        </g>
    </g>
</svg>