<?xml version="1.0" encoding="utf-8"?>
<!-- Generator: Adobe Illustrator 24.0.0, SVG Export Plug-In . SVG Version: 6.00 Build 0)  -->
<svg version="1.1" id="Layer_1" xmlns="http://www.w3.org/2000/svg" xmlns:xlink="http://www.w3.org/1999/xlink" x="0px" y="0px"
	 width="1838px" height="507.9px" viewBox="0 0 1838 507.9" style="enable-background:new 0 0 1838 507.9;" xml:space="preserve">
<style type="text/css">
	.st0{fill:#ED2C28;}
	.st1{fill:#4C4C4C;}
</style>
<g>
	<g>
		<path class="st0" d="M456.2,80L166.4,2.4C128.9-7.6,90.1,14.8,80,52.2L2.4,342c-10,37.2,12.3,75.8,49.5,85.7l83.3,22.3
			c-5.3-8.7-9.3-18.7-11.7-29.8c-3.1-13.9-4.6-29.8-4.6-47.5v-225c0-3.5,2.5-6.4,5.9-7l60.1-9.9c0.4-0.1,0.8-0.1,1.2-0.1
			c1.7,0,3.3,0.6,4.6,1.7c1.6,1.3,2.5,3.3,2.5,5.4v71.5h85.4c3.9,0,7.1,3.2,7.1,7.1v50.2c0,3.9-3.2,7.1-7.1,7.1h-85.4v98.8
			c0,19.2,2.9,32.9,8.6,40.5c5.3,7.1,14.5,10.6,28.1,10.6c10.3,0,19.4-1.1,27.2-3.2c8.1-2.2,14.6-4.3,19.4-6.2
			c0.8-0.3,1.7-0.5,2.6-0.5c1.2,0,2.3,0.3,3.3,0.8c1.8,1,3.1,2.7,3.6,4.8l9.9,47.7c0.7,3.3-1,6.6-4.1,7.9
			c-7.2,3.1-16.7,6.3-28.2,9.5c-0.2,0-0.3,0.1-0.5,0.1l79.2,21.2c37.2,10,75.8-12.3,85.7-49.5l77.8-290.3
			C515.6,128.6,493.3,90,456.2,80z"/>
	</g>
	<g>
		<path class="st1" d="M743,350.7c-0.3-1.5-1.3-2.9-2.7-3.6c-0.8-0.4-1.6-0.6-2.5-0.6c-0.7,0-1.3,0.1-2,0.4c-3.6,1.4-8.5,3-14.6,4.7
			c-5.9,1.6-12.7,2.4-20.4,2.4c-10.3,0-17.2-2.6-21.1-7.9c-4.3-5.8-6.4-16-6.4-30.5v-74.2h64.2c2.9,0,5.3-2.4,5.3-5.3v-37.7
			c0-2.9-2.4-5.3-5.3-5.3h-64.2v-53.7c0-1.6-0.7-3-1.9-4c-1-0.8-2.2-1.3-3.4-1.3c-0.3,0-0.6,0-0.9,0.1l-45.2,7.5
			c-2.6,0.4-4.4,2.6-4.4,5.2V316c0,13.3,1.2,25.3,3.5,35.7c2.4,10.8,6.6,20.2,12.6,27.9c6,7.8,14.3,13.9,24.4,17.9
			c9.9,4,22.3,6,36.9,6c11.9,0,22.4-1.3,31.3-3.7c8.6-2.4,15.8-4.8,21.2-7.1c2.3-1,3.6-3.5,3.1-6L743,350.7z"/>
		<path class="st1" d="M944.9,193h-45.2c-2.9,0-5.3,2.4-5.3,5.3v153.6c-2.4,0.4-5.3,0.7-8.8,1c-5.9,0.5-11.6,0.7-16.9,0.7
			c-13.4,0-22.5-3.6-27.5-11.1c-5.5-8-8.2-22.1-8.2-41.8V198.3c0-2.9-2.4-5.3-5.3-5.3h-45.2c-2.9,0-5.3,2.4-5.3,5.3v109.4
			c0,13.6,1.4,26.3,4.3,37.7c2.9,11.8,7.8,22.1,14.6,30.6c6.9,8.6,16.1,15.4,27.5,20.3c11.2,4.7,25.1,7.1,41.5,7.1
			c16.9,0,32.6-1.2,46.8-3.6c14-2.4,25.6-4.7,34.4-7c2.3-0.6,4-2.7,4-5.1V198.3C950.2,195.4,947.8,193,944.9,193z"/>
		<path class="st1" d="M1109.8,350.7c-0.3-1.5-1.3-2.9-2.7-3.6c-0.8-0.4-1.6-0.6-2.5-0.6c-0.7,0-1.3,0.1-2,0.4
			c-3.6,1.4-8.5,3-14.6,4.7c-5.9,1.6-12.7,2.4-20.4,2.4c-10.3,0-17.2-2.6-21.1-7.9c-4.3-5.8-6.4-16-6.4-30.5v-74.2h64.2
			c2.9,0,5.3-2.4,5.3-5.3v-37.7c0-2.9-2.4-5.3-5.3-5.3h-64.2v-53.7c0-1.6-0.7-3-1.9-4c-1-0.8-2.2-1.3-3.4-1.3c-0.3,0-0.6,0-0.9,0.1
			l-45.2,7.5c-2.6,0.4-4.4,2.6-4.4,5.2V316c0,13.3,1.2,25.3,3.5,35.7c2.4,10.8,6.6,20.2,12.6,27.9c6,7.8,14.3,13.9,24.4,17.9
			c9.9,4,22.3,6,36.9,6c11.9,0,22.4-1.3,31.3-3.7c8.6-2.4,15.8-4.8,21.2-7.1c2.3-1,3.6-3.5,3.1-6L1109.8,350.7z"/>
		<path class="st1" d="M1267.7,350.7c-0.3-1.5-1.3-2.9-2.7-3.6c-0.8-0.4-1.6-0.6-2.5-0.6c-0.7,0-1.3,0.1-2,0.4
			c-3.6,1.4-8.5,3-14.6,4.7c-5.9,1.6-12.7,2.4-20.4,2.4c-10.3,0-17.2-2.6-21.1-7.9c-4.3-5.8-6.4-16-6.4-30.5v-74.2h64.2
			c2.9,0,5.3-2.4,5.3-5.3v-37.7c0-2.9-2.4-5.3-5.3-5.3H1198v-53.7c0-1.6-0.7-3-1.9-4c-1-0.8-2.2-1.3-3.4-1.3c-0.3,0-0.6,0-0.9,0.1
			l-45.2,7.5c-2.6,0.4-4.4,2.6-4.4,5.2V316c0,13.3,1.2,25.3,3.5,35.7c2.4,10.8,6.6,20.2,12.6,27.9c6,7.8,14.3,13.9,24.4,17.9
			c9.9,4,22.3,6,36.9,6c11.9,0,22.4-1.3,31.3-3.7c8.6-2.4,15.8-4.8,21.2-7.1c2.3-1,3.6-3.5,3.1-6L1267.7,350.7z"/>
		<path class="st1" d="M1328.6,107.9c-9,0-16.9,3-23.4,8.8c-6.6,6-10,14.2-10,24.5c0,10,3.3,18.1,10,24.1c6.4,5.9,14.3,8.8,23.4,8.8
			c8.8,0,16.5-3,23-8.9c6.6-6,10-14.1,10-24.1c0-10.2-3.3-18.5-9.9-24.5C1345.1,110.8,1337.4,107.9,1328.6,107.9z"/>
		<path class="st1" d="M1351.4,193h-45.2c-2.9,0-5.3,2.4-5.3,5.3v195.3c0,2.9,2.4,5.3,5.3,5.3h45.2c2.9,0,5.3-2.4,5.3-5.3V198.3
			C1356.7,195.4,1354.3,193,1351.4,193z"/>
		<path class="st1" d="M1422.7,333.8c-9.9,0-18.3,3.3-25,9.9c-6.8,6.6-10.2,15.1-10.2,25.3c0,10.2,3.4,18.6,10.2,25.1
			c6.7,6.4,15.1,9.7,25,9.7c9.6,0,17.9-3.2,24.7-9.6c6.9-6.5,10.5-15,10.5-25.2s-3.5-18.7-10.4-25.3
			C1440.6,337.1,1432.3,333.8,1422.7,333.8z"/>
		<path class="st1" d="M1633.2,351.4c-0.3-1.6-1.2-2.9-2.6-3.7c-0.8-0.4-1.7-0.7-2.5-0.7c-0.7,0-1.3,0.1-2,0.4
			c-5.1,2.1-11.2,3.8-18.1,5.2c-7,1.4-14.2,2.1-21.4,2.1c-18.5,0-31.7-4.9-39.2-14.7c-7.8-10.1-11.8-24.3-11.8-42.2
			c0-18.5,4.2-32.9,12.4-42.7c8.1-9.7,19.7-14.5,35.6-14.5c6.9,0,13.5,0.7,19.6,2.1c6.1,1.4,11.7,3.1,16.5,5.2
			c0.7,0.3,1.4,0.4,2.1,0.4c0.8,0,1.6-0.2,2.3-0.5c1.4-0.7,2.4-1.9,2.8-3.4l9.5-36.3c0.7-2.5-0.6-5.2-3.1-6.1
			c-16.7-6.8-34.7-10.3-53.4-10.3c-15.3,0-29.4,2.7-41.7,8.1c-12.4,5.4-23,13-31.7,22.6c-8.6,9.5-15.3,20.9-20,33.9
			c-4.6,12.9-6.9,26.9-6.9,41.6c0,14.9,2.1,29,6.1,41.8c4.1,13,10.5,24.4,18.9,33.8c8.4,9.5,19.2,17,32,22.3
			c12.7,5.3,27.8,7.9,44.8,7.9c10.8,0,21.5-1,31.7-3c10.5-2.1,18.2-4.4,23.5-7.1c2.1-1,3.2-3.3,2.8-5.5L1633.2,351.4z"/>
		<path class="st1" d="M1834,248.7c-2.7-11.5-7.5-21.5-14-29.7c-6.6-8.4-15.5-14.9-26.5-19.6c-10.8-4.5-24.4-6.8-40.4-6.8
			c-6.6,0-13.5,0.6-20.2,1.9c-3.9,0.7-7.5,1.6-10.9,2.5v-88c0-1.5-0.7-3-1.8-4c-0.9-0.8-2.1-1.2-3.4-1.2c-0.3,0-0.6,0-0.9,0.1
			l-44.4,7.3c-2.5,0.4-4.4,2.6-4.4,5.1v277.5c0,2.9,2.3,5.2,5.2,5.2h44.4c2.9,0,5.2-2.3,5.2-5.2V245c2.5-0.6,5.6-1.4,9.4-2.1
			c5.8-1.2,11.5-1.7,17-1.7c6.9,0,12.6,0.9,17.1,2.7c4.2,1.7,7.4,4.3,9.9,8c2.6,3.9,4.6,9.2,5.8,15.7c1.3,6.9,1.9,15.4,1.9,25.3v101
			c0,2.9,2.3,5.2,5.2,5.2h44.4c2.9,0,5.2-2.3,5.2-5.2v-108C1838,272.3,1836.7,259.8,1834,248.7z"/>
	</g>
</g>
</svg>
